<svg width="18" height="18" viewBox="0 0 22 21" fill="none" xmlns="http://www.w3.org/2000/svg">
<path d="M1.25 1.5H2.636C3.146 1.5 3.591 1.843 3.723 2.335L4.106 3.772M4.106 3.772C9.67664 3.61589 15.2419 4.23515 20.642 5.612C19.818 8.066 18.839 10.45 17.718 12.75H6.5M4.106 3.772L6.5 12.75M6.5 12.75C5.70435 12.75 4.94129 13.0661 4.37868 13.6287C3.81607 14.1913 3.5 14.9544 3.5 15.75H19.25M5 18.75C5 18.9489 4.92098 19.1397 4.78033 19.2803C4.63968 19.421 4.44891 19.5 4.25 19.5C4.05109 19.5 3.86032 19.421 3.71967 19.2803C3.57902 19.1397 3.5 18.9489 3.5 18.75C3.5 18.5511 3.57902 18.3603 3.71967 18.2197C3.86032 18.079 4.05109 18 4.25 18C4.44891 18 4.63968 18.079 4.78033 18.2197C4.92098 18.3603 5 18.5511 5 18.75ZM17.75 18.75C17.75 18.9489 17.671 19.1397 17.5303 19.2803C17.3897 19.421 17.1989 19.5 17 19.5C16.8011 19.5 16.6103 19.421 16.4697 19.2803C16.329 19.1397 16.25 18.9489 16.25 18.75C16.25 18.5511 16.329 18.3603 16.4697 18.2197C16.6103 18.079 16.8011 18 17 18C17.1989 18 17.3897 18.079 17.5303 18.2197C17.671 18.3603 17.75 18.5511 17.75 18.75Z" stroke="#2A2A2A" stroke-width="1.5" stroke-linecap="round" stroke-linejoin="round"/>
</svg>
