<svg width="24" height="24" viewBox="0 0 24 24" fill="none" xmlns="http://www.w3.org/2000/svg">
<path d="M17.9869 1.59607C16.9781 1.48906 15.9643 1.43698 14.9499 1.44007C11.5869 1.44007 9.49687 3.58207 9.49687 7.03007V9.37107H6.67188C6.53927 9.37107 6.41209 9.42375 6.31832 9.51752C6.22455 9.61129 6.17188 9.73846 6.17188 9.87107V13.7211C6.17188 13.8537 6.22455 13.9809 6.31832 14.0746C6.41209 14.1684 6.53927 14.2211 6.67188 14.2211H9.49687V21.9411C9.49687 22.0737 9.54955 22.2009 9.64332 22.2946C9.73709 22.3884 9.86427 22.4411 9.99687 22.4411H13.9749C14.1075 22.4411 14.2347 22.3884 14.3284 22.2946C14.4222 22.2009 14.4749 22.0737 14.4749 21.9411V14.2211H17.2909C17.4123 14.2211 17.5295 14.177 17.6208 14.097C17.7121 14.0169 17.7711 13.9064 17.7869 13.7861L18.2839 9.93607C18.2931 9.8655 18.2872 9.79377 18.2665 9.72568C18.2458 9.65758 18.2108 9.59469 18.1639 9.54121C18.1169 9.48772 18.0591 9.44488 17.9942 9.41554C17.9294 9.3862 17.859 9.37104 17.7879 9.37107H14.4749V7.41207C14.4749 6.44207 14.6699 6.03707 15.8829 6.03707H17.9219C18.0545 6.03707 18.1817 5.98439 18.2754 5.89062C18.3692 5.79686 18.4219 5.66968 18.4219 5.53707V2.09207C18.4219 1.97068 18.3778 1.85341 18.2978 1.76215C18.2177 1.67088 18.1072 1.61185 17.9869 1.59607ZM17.4219 5.03607L15.8819 5.03707C13.7249 5.03707 13.4749 6.39307 13.4749 7.41207V9.87207C13.4749 10.0045 13.5274 10.1315 13.621 10.2253C13.7145 10.319 13.8414 10.3718 13.9739 10.3721H17.2199L16.8509 13.2221H13.9749C13.8423 13.2221 13.7151 13.2747 13.6213 13.3685C13.5276 13.4623 13.4749 13.5895 13.4749 13.7221V21.4401H10.4969V13.7221C10.4969 13.5895 10.4442 13.4623 10.3504 13.3685C10.2567 13.2747 10.1295 13.2221 9.99687 13.2221H7.17287V10.3721H9.99687C10.1295 10.3721 10.2567 10.3194 10.3504 10.2256C10.4442 10.1319 10.4969 10.0047 10.4969 9.87207V7.03007C10.4969 4.15607 12.1619 2.44007 14.9499 2.44007C15.9589 2.44007 16.8699 2.49507 17.4219 2.54307V5.03607Z" fill="white"/>
</svg>
