<svg width="24" height="24" viewBox="0 0 24 24" fill="none" xmlns="http://www.w3.org/2000/svg">
<path d="M22.5011 3.5888C22.501 3.50055 22.4777 3.41387 22.4333 3.33758C22.3889 3.26128 22.3252 3.19809 22.2485 3.15441C22.1718 3.11074 22.0849 3.08813 21.9967 3.08891C21.9084 3.08968 21.822 3.11379 21.7461 3.1588C21.0423 3.57789 20.2779 3.88553 19.4801 4.0708C18.6081 3.23832 17.4476 2.77597 16.2421 2.7808C15.5873 2.78173 14.9398 2.91856 14.3407 3.18264C13.7415 3.44672 13.2037 3.8323 12.7613 4.31497C12.3188 4.79764 11.9814 5.3669 11.7703 5.98672C11.5592 6.60654 11.4791 7.26342 11.5351 7.9158C8.51218 7.59454 5.73858 6.09219 3.81805 3.7358C3.76679 3.6732 3.7011 3.62397 3.62663 3.59235C3.55216 3.56072 3.47112 3.54764 3.39048 3.55423C3.30984 3.56082 3.232 3.58688 3.16365 3.63018C3.09529 3.67347 3.03847 3.73271 2.99805 3.8028C2.58317 4.52629 2.36494 5.34579 2.36505 6.1798C2.36383 7.09513 2.62856 7.99111 3.12705 8.7588L3.06705 8.7258C2.9887 8.68734 2.90171 8.66988 2.81459 8.67514C2.72747 8.6804 2.6432 8.70819 2.57005 8.7558C2.49383 8.80536 2.43127 8.87326 2.38812 8.95328C2.34496 9.03331 2.32259 9.12288 2.32305 9.2138C2.31905 9.3318 2.32605 9.4508 2.34505 9.5668C2.39231 10.227 2.57873 10.8698 2.89206 11.4528C3.20539 12.0359 3.63854 12.546 4.16305 12.9498C4.09912 12.9686 4.0396 13 3.98799 13.0422C3.93637 13.0843 3.89371 13.1364 3.8625 13.1953C3.83129 13.2542 3.81216 13.3187 3.80625 13.3851C3.80033 13.4514 3.80774 13.5183 3.82805 13.5818C4.05906 14.3021 4.46036 14.956 4.99792 15.4882C5.53549 16.0204 6.19347 16.4151 6.91605 16.6388C5.44054 17.4649 3.74117 17.802 2.06205 17.6018C1.94953 17.5877 1.83557 17.6123 1.73887 17.6715C1.64217 17.7308 1.56847 17.8211 1.52986 17.9277C1.49126 18.0343 1.49005 18.1509 1.52642 18.2583C1.5628 18.3657 1.6346 18.4576 1.73005 18.5188C3.7395 19.8127 6.07908 20.5004 8.46905 20.4998C11.1802 20.5297 13.8253 19.663 15.9929 18.0342C18.1606 16.4055 19.7293 14.1062 20.4551 11.4938C20.7941 10.3568 20.9671 9.1758 20.9691 7.9888C20.9691 7.8688 20.9691 7.7438 20.9661 7.6168C21.4862 7.08797 21.8911 6.45713 22.1552 5.76404C22.4194 5.07095 22.5372 4.33065 22.5011 3.5898V3.5888ZM20.0771 7.1218C19.9949 7.21892 19.953 7.34379 19.9601 7.4708C20.0147 8.73493 19.8579 9.99932 19.4961 11.2118C18.8507 13.628 17.4133 15.7579 15.4141 17.2605C13.4149 18.7631 10.9694 19.5516 8.46905 19.4998C6.94308 19.4999 5.43248 19.1949 4.02605 18.6028C5.67897 18.4194 7.24699 17.7749 8.55105 16.7428C8.63218 16.679 8.6916 16.5917 8.72113 16.4928C8.75066 16.3939 8.74888 16.2883 8.71601 16.1905C8.68314 16.0927 8.62081 16.0074 8.53757 15.9464C8.45432 15.8854 8.35424 15.8517 8.25105 15.8498C7.61101 15.8394 6.98455 15.6635 6.43257 15.3394C5.8806 15.0152 5.42189 14.5537 5.10105 13.9998C5.52605 14.0008 5.94805 13.9428 6.35505 13.8258C6.46232 13.7944 6.55596 13.7279 6.62102 13.637C6.68608 13.5461 6.71881 13.436 6.71397 13.3243C6.70913 13.2127 6.66702 13.1058 6.59435 13.0209C6.52167 12.936 6.42264 12.8778 6.31305 12.8558C5.59724 12.7126 4.93968 12.3611 4.42287 11.8455C3.90606 11.33 3.55302 10.6733 3.40805 9.9578C3.83273 10.0955 4.2748 10.1723 4.72105 10.1858C4.83099 10.1939 4.94033 10.1634 5.03016 10.0995C5.12 10.0356 5.18468 9.94233 5.21305 9.8358C5.24572 9.73239 5.24387 9.62115 5.2078 9.51888C5.17172 9.4166 5.10337 9.32883 5.01305 9.2688C4.50429 8.93015 4.08746 8.47063 3.79985 7.93137C3.51225 7.39212 3.36286 6.78995 3.36505 6.1788C3.36505 5.7658 3.43205 5.3558 3.56505 4.9658C5.78208 7.35982 8.84644 8.79332 12.1051 8.9608C12.1829 8.96912 12.2616 8.95699 12.3333 8.9256C12.405 8.89421 12.4673 8.84464 12.5141 8.7818C12.5636 8.72237 12.5988 8.65223 12.6166 8.57692C12.6345 8.50161 12.6346 8.42318 12.6171 8.3478C12.551 8.07198 12.5175 7.7894 12.5171 7.5058C12.5181 6.51827 12.9107 5.57147 13.6088 4.87299C14.3069 4.17452 15.2535 3.78139 16.2411 3.7798C16.7497 3.77835 17.2532 3.88238 17.7196 4.0853C18.186 4.28823 18.6054 4.58565 18.9511 4.9588C19.0091 5.02073 19.082 5.06682 19.1629 5.09272C19.2437 5.11862 19.3298 5.12346 19.4131 5.1068C20.1227 4.96708 20.8127 4.74177 21.4681 4.4358C21.2977 5.45511 20.8106 6.39488 20.0761 7.1218H20.0771Z" fill="white"/>
</svg>